<svg width="63" height="51" viewBox="0 0 63 51" fill="none" xmlns="http://www.w3.org/2000/svg">
<path d="M14.8609 43.0675L15.7595 41.8664L14.8609 43.0675ZM53.4989 22.6631C53.467 21.8353 52.7701 21.1901 51.9422 21.222L38.4523 21.7418C37.6244 21.7737 36.9792 22.4707 37.0111 23.2985C37.043 24.1263 37.74 24.7715 38.5678 24.7396L50.5589 24.2775L51.0209 36.2687C51.0528 37.0965 51.7498 37.7417 52.5776 37.7098C53.4054 37.6779 54.0506 36.9809 54.0187 36.1531L53.4989 22.6631ZM26.2539 2.85349C20.7756 7.47516 14.4194 15.0913 11.0002 22.8151C9.28979 26.6789 8.26273 30.6851 8.54705 34.418C8.83611 38.213 10.4815 41.6644 13.9624 44.2685L15.7595 41.8664C13.0208 39.8175 11.7665 37.185 11.5384 34.1901C11.3055 31.133 12.1438 27.6431 13.7435 24.0294C16.9446 16.7981 22.9882 9.53354 28.1884 5.14651L26.2539 2.85349ZM13.9624 44.2685C18.0057 47.2934 22.1435 48.0139 26.1518 47.1743C30.0834 46.3507 33.7797 44.0518 37.1111 41.2544C40.4547 38.4467 43.5388 35.0435 46.234 31.8706C48.9775 28.6407 51.2363 25.7538 53.1007 23.7399L50.8993 21.7019C48.9863 23.7682 46.5637 26.8485 43.9475 29.9284C41.283 33.0652 38.329 36.3143 35.1819 38.957C32.0226 41.6099 28.7755 43.5595 25.5367 44.238C22.3746 44.9004 19.115 44.3767 15.7595 41.8664L13.9624 44.2685Z" fill="#232323"/>
</svg>
