<svg width="52" height="47" viewBox="0 0 52 47" fill="none" xmlns="http://www.w3.org/2000/svg">
<path d="M29.25 3.4553L28.3361 4.64477L29.25 3.4553ZM12.25 43.2424L13.4927 42.4024L12.25 43.2424ZM51.4447 30.0574C51.6676 29.2596 51.2014 28.4321 50.4035 28.2092L37.4013 24.5773C36.6034 24.3544 35.7759 24.8205 35.553 25.6184C35.3302 26.4163 35.7963 27.2438 36.5942 27.4667L48.1518 30.695L44.9234 42.2526C44.7005 43.0505 45.1667 43.878 45.9645 44.1009C46.7624 44.3237 47.5899 43.8576 47.8128 43.0597L51.4447 30.0574ZM3.40646 34.16C5.84193 27.5905 10.0986 18.2645 14.9346 11.5709C17.366 8.20557 19.8392 5.655 22.1807 4.38329C23.3321 3.75796 24.3923 3.47442 25.3676 3.50181C26.325 3.52871 27.3115 3.85756 28.3361 4.64477L30.1639 2.26583C28.6885 1.13228 27.1021 0.549349 25.4518 0.502998C23.8193 0.457146 22.2369 0.938914 20.749 1.747C17.8119 3.34214 15.0194 6.33089 12.5029 9.81398C7.44311 16.8172 3.07474 26.4243 0.593539 33.1172L3.40646 34.16ZM28.3361 4.64477C29.632 5.64037 30.215 6.70375 30.3913 7.80948C30.5754 8.96475 30.3419 10.339 29.6729 11.9532C28.3191 15.2196 25.4213 18.9271 22.1384 22.7889C18.9328 26.5598 15.3592 30.4768 12.9985 33.9433C11.814 35.6827 10.8492 37.4265 10.3952 39.0895C9.93297 40.7828 9.96654 42.5428 11.0073 44.0824L13.4927 42.4024C13.096 41.8154 12.9733 41.0373 13.2893 39.8795C13.6137 38.6914 14.3618 37.2711 15.4781 35.632C17.7189 32.3416 21.0984 28.6441 24.4241 24.732C27.6725 20.9108 30.884 16.8666 32.4443 13.1017C33.2324 11.2002 33.657 9.23887 33.3539 7.33722C33.0428 5.38603 31.993 3.67118 30.1639 2.26583L28.3361 4.64477ZM11.0073 44.0824C12.7018 46.5893 15.8898 46.7881 18.9387 46.2602C22.1122 45.7107 25.8947 44.2591 29.733 42.4723C37.4155 38.8962 45.8142 33.7334 50.7362 30.9608L49.2638 28.347C44.1858 31.2075 36.0095 36.2415 28.467 39.7526C24.6928 41.5095 21.2003 42.824 18.4269 43.3042C15.5289 43.806 14.0982 43.298 13.4927 42.4024L11.0073 44.0824Z" fill="#232323"/>
</svg>
