<svg width="1356" height="726" viewBox="0 0 1356 726" fill="none" xmlns="http://www.w3.org/2000/svg">
<line x1="1265.5" y1="1" x2="1265.5" y2="726" stroke="white" stroke-opacity="0.1"/>
<line x1="1150.5" y1="1" x2="1150.5" y2="726" stroke="white" stroke-opacity="0.1"/>
<line x1="575.5" y1="1" x2="575.5" y2="726" stroke="white" stroke-opacity="0.1"/>
<line x1="1035.5" y1="1" x2="1035.5" y2="726" stroke="white" stroke-opacity="0.1"/>
<line x1="460.5" y1="1" x2="460.5" y2="726" stroke="white" stroke-opacity="0.1"/>
<line x1="920.5" y1="1" x2="920.5" y2="726" stroke="white" stroke-opacity="0.1"/>
<line x1="345.5" y1="1" x2="345.5" y2="726" stroke="white" stroke-opacity="0.1"/>
<line x1="805.5" y1="1" x2="805.5" y2="726" stroke="white" stroke-opacity="0.1"/>
<line x1="230.5" y1="1" x2="230.5" y2="726" stroke="white" stroke-opacity="0.1"/>
<line x1="690.5" y1="1" x2="690.5" y2="726" stroke="white" stroke-opacity="0.1"/>
<line x1="115.5" y1="1" x2="115.5" y2="726" stroke="white" stroke-opacity="0.1"/>
<line x1="0.5" y1="1" x2="0.499968" y2="726" stroke="white" stroke-opacity="0.1"/>
<line y1="0.5" x2="1355" y2="0.5" stroke="white" stroke-opacity="0.1"/>
<line y1="80.748" x2="1355" y2="80.748" stroke="white" stroke-opacity="0.1"/>
<line y1="161.918" x2="1355" y2="161.918" stroke="white" stroke-opacity="0.1"/>
<line y1="242.167" x2="1355" y2="242.167" stroke="white" stroke-opacity="0.1"/>
<line y1="322.415" x2="1355" y2="322.415" stroke="white" stroke-opacity="0.1"/>
<line y1="403.585" x2="1355" y2="403.585" stroke="white" stroke-opacity="0.1"/>
<line y1="483.833" x2="1355" y2="483.833" stroke="white" stroke-opacity="0.1"/>
<line y1="564.082" x2="1355" y2="564.082" stroke="white" stroke-opacity="0.1"/>
<line y1="645.252" x2="1355" y2="645.252" stroke="white" stroke-opacity="0.1"/>
<line x1="1355.5" y1="1" x2="1355.5" y2="726" stroke="white" stroke-opacity="0.1"/>
</svg>
