<svg width="1356" height="787" viewBox="0 0 1356 787" fill="none" xmlns="http://www.w3.org/2000/svg">
<line x1="1265.5" y1="1" x2="1265.5" y2="787" stroke="white" stroke-opacity="0.1"/>
<line x1="1150.5" y1="1" x2="1150.5" y2="787" stroke="white" stroke-opacity="0.1"/>
<line x1="575.5" y1="1" x2="575.5" y2="787" stroke="white" stroke-opacity="0.1"/>
<line x1="1035.5" y1="1" x2="1035.5" y2="787" stroke="white" stroke-opacity="0.1"/>
<line x1="460.5" y1="1" x2="460.5" y2="787" stroke="white" stroke-opacity="0.1"/>
<line x1="920.5" y1="1" x2="920.5" y2="787" stroke="white" stroke-opacity="0.1"/>
<line x1="345.5" y1="1" x2="345.5" y2="787" stroke="white" stroke-opacity="0.1"/>
<line x1="805.5" y1="1" x2="805.5" y2="787" stroke="white" stroke-opacity="0.1"/>
<line x1="230.5" y1="1" x2="230.5" y2="787" stroke="white" stroke-opacity="0.1"/>
<line x1="690.5" y1="1" x2="690.5" y2="787" stroke="white" stroke-opacity="0.1"/>
<line x1="115.5" y1="1" x2="115.5" y2="787" stroke="white" stroke-opacity="0.1"/>
<line x1="0.5" y1="1" x2="0.499966" y2="787" stroke="white" stroke-opacity="0.1"/>
<line y1="0.5" x2="1355" y2="0.5" stroke="white" stroke-opacity="0.1"/>
<line y1="87.5" x2="1355" y2="87.5" stroke="white" stroke-opacity="0.1"/>
<line y1="175.5" x2="1355" y2="175.5" stroke="white" stroke-opacity="0.1"/>
<line y1="262.5" x2="1355" y2="262.5" stroke="white" stroke-opacity="0.1"/>
<line y1="349.5" x2="1355" y2="349.5" stroke="white" stroke-opacity="0.1"/>
<line y1="437.5" x2="1355" y2="437.5" stroke="white" stroke-opacity="0.1"/>
<line y1="524.5" x2="1355" y2="524.5" stroke="white" stroke-opacity="0.1"/>
<line y1="611.5" x2="1355" y2="611.5" stroke="white" stroke-opacity="0.1"/>
<line y1="699.5" x2="1355" y2="699.5" stroke="white" stroke-opacity="0.1"/>
<line x1="1355.5" y1="1" x2="1355.5" y2="787" stroke="white" stroke-opacity="0.1"/>
</svg>
