<svg width="48" height="48" viewBox="0 0 48 48" fill="none" xmlns="http://www.w3.org/2000/svg">
<g filter="url(#filter0_d_421_573)">
<rect x="4" width="40" height="40" rx="20" fill="#1D8A86" shape-rendering="crispEdges"/>
<path d="M19.8 10H28.2C31.4 10 34 12.6 34 15.8V24.2C34 25.7383 33.3889 27.2135 32.3012 28.3012C31.2135 29.3889 29.7383 30 28.2 30H19.8C16.6 30 14 27.4 14 24.2V15.8C14 14.2617 14.6111 12.7865 15.6988 11.6988C16.7865 10.6111 18.2617 10 19.8 10ZM19.6 12C18.6452 12 17.7295 12.3793 17.0544 13.0544C16.3793 13.7295 16 14.6452 16 15.6V24.4C16 26.39 17.61 28 19.6 28H28.4C29.3548 28 30.2705 27.6207 30.9456 26.9456C31.6207 26.2705 32 25.3548 32 24.4V15.6C32 13.61 30.39 12 28.4 12H19.6ZM29.25 13.5C29.5815 13.5 29.8995 13.6317 30.1339 13.8661C30.3683 14.1005 30.5 14.4185 30.5 14.75C30.5 15.0815 30.3683 15.3995 30.1339 15.6339C29.8995 15.8683 29.5815 16 29.25 16C28.9185 16 28.6005 15.8683 28.3661 15.6339C28.1317 15.3995 28 15.0815 28 14.75C28 14.4185 28.1317 14.1005 28.3661 13.8661C28.6005 13.6317 28.9185 13.5 29.25 13.5ZM24 15C25.3261 15 26.5979 15.5268 27.5355 16.4645C28.4732 17.4021 29 18.6739 29 20C29 21.3261 28.4732 22.5979 27.5355 23.5355C26.5979 24.4732 25.3261 25 24 25C22.6739 25 21.4021 24.4732 20.4645 23.5355C19.5268 22.5979 19 21.3261 19 20C19 18.6739 19.5268 17.4021 20.4645 16.4645C21.4021 15.5268 22.6739 15 24 15ZM24 17C23.2044 17 22.4413 17.3161 21.8787 17.8787C21.3161 18.4413 21 19.2044 21 20C21 20.7956 21.3161 21.5587 21.8787 22.1213C22.4413 22.6839 23.2044 23 24 23C24.7956 23 25.5587 22.6839 26.1213 22.1213C26.6839 21.5587 27 20.7956 27 20C27 19.2044 26.6839 18.4413 26.1213 17.8787C25.5587 17.3161 24.7956 17 24 17Z" fill="white"/>
</g>
<defs>
<filter id="filter0_d_421_573" x="0" y="0" width="48" height="48" filterUnits="userSpaceOnUse" color-interpolation-filters="sRGB">
<feFlood flood-opacity="0" result="BackgroundImageFix"/>
<feColorMatrix in="SourceAlpha" type="matrix" values="0 0 0 0 0 0 0 0 0 0 0 0 0 0 0 0 0 0 127 0" result="hardAlpha"/>
<feOffset dy="4"/>
<feGaussianBlur stdDeviation="2"/>
<feComposite in2="hardAlpha" operator="out"/>
<feColorMatrix type="matrix" values="0 0 0 0 0 0 0 0 0 0 0 0 0 0 0 0 0 0 0.25 0"/>
<feBlend mode="normal" in2="BackgroundImageFix" result="effect1_dropShadow_421_573"/>
<feBlend mode="normal" in="SourceGraphic" in2="effect1_dropShadow_421_573" result="shape"/>
</filter>
</defs>
</svg>
