<svg width="45" height="45" viewBox="0 0 45 45" fill="none" xmlns="http://www.w3.org/2000/svg">
<path d="M40.8305 6.48733L40.0055 7.05242L40.8305 6.48733ZM18.8714 43.7416C18.3209 43.6973 17.9105 43.2151 17.9548 42.6646L18.6764 33.6936C18.7207 33.1431 19.2029 32.7327 19.7534 32.777C20.3039 32.8213 20.7142 33.3034 20.67 33.8539L20.0285 41.8282L28.0028 42.4696C28.5533 42.5139 28.9637 42.9961 28.9194 43.5466C28.8751 44.0971 28.3929 44.5075 27.8424 44.4632L18.8714 43.7416ZM0.544455 16.53C5.34975 11.294 13.1638 5.31084 20.94 2.24993C24.8295 0.718949 28.7878 -0.112144 32.3933 0.314458C36.0402 0.745949 39.2863 2.46312 41.6556 5.92224L40.0055 7.05242C37.9854 4.1031 35.274 2.66924 32.1583 2.3006C29.0014 1.92708 25.3923 2.64677 21.6726 4.11095C14.2304 7.04036 6.65924 12.825 2.01797 17.8823L0.544455 16.53ZM41.6556 5.92224C44.4281 9.97013 44.9487 13.9868 43.9778 17.8169C43.0198 21.5964 40.63 25.1211 37.7212 28.3052C34.8052 31.4971 31.3029 34.4159 28.0264 36.9714C24.7107 39.5576 21.6987 41.7199 19.5997 43.5063L18.3034 41.9833C20.4388 40.1659 23.5841 37.8999 26.7964 35.3944C30.0479 32.8583 33.444 30.0219 36.2446 26.9563C39.0523 23.8828 41.1971 20.6475 42.0391 17.3255C42.8683 14.0541 42.4545 10.6279 40.0055 7.05242L41.6556 5.92224Z" fill="#232323"/>
</svg>
