<svg width="12" height="14" viewBox="0 0 12 14" fill="none" xmlns="http://www.w3.org/2000/svg">
<path d="M9.45 2.365C8.93743 1.77965 8.65492 1.02805 8.65499 0.25H6.33749V9.55C6.31999 10.0534 6.10764 10.5303 5.74523 10.8801C5.38282 11.2299 4.89869 11.4253 4.39499 11.425C3.32999 11.425 2.445 10.555 2.445 9.475C2.445 8.185 3.69 7.2175 4.9725 7.615V5.245C2.385 4.9 0.119995 6.91 0.119995 9.475C0.119995 11.9725 2.19 13.75 4.3875 13.75C6.7425 13.75 8.65499 11.8375 8.65499 9.475V4.7575C9.59474 5.43239 10.723 5.79449 11.88 5.7925V3.475C11.88 3.475 10.47 3.5425 9.45 2.365Z" fill="white"/>
</svg>
