<svg width="12" height="20" viewBox="0 0 12 20" fill="none" xmlns="http://www.w3.org/2000/svg">
<path d="M0.110352 10.0068C0.110352 10.195 0.146322 10.3721 0.218262 10.5381C0.290202 10.6986 0.403646 10.8535 0.558594 11.0029L8.87598 19.0547C9.11393 19.2982 9.40723 19.4199 9.75586 19.4199C9.98828 19.4199 10.1986 19.3618 10.3867 19.2456C10.5804 19.1349 10.7326 18.9855 10.8433 18.7974C10.9595 18.6092 11.0176 18.3962 11.0176 18.1582C11.0176 17.8206 10.8875 17.519 10.6274 17.2534L3.10693 9.99854L10.6274 2.75195C10.8875 2.49186 11.0176 2.19027 11.0176 1.84717C11.0176 1.61475 10.9595 1.40446 10.8433 1.21631C10.7326 1.02816 10.5804 0.878743 10.3867 0.768066C10.1986 0.657389 9.98828 0.602051 9.75586 0.602051C9.40723 0.602051 9.11393 0.721029 8.87598 0.958984L0.558594 9.01074C0.40918 9.16016 0.298503 9.3151 0.226562 9.47559C0.154622 9.63607 0.115885 9.81315 0.110352 10.0068Z" fill="white"/>
</svg>
